<svg width="197" height="84" viewBox="0 0 197 84" fill="none" xmlns="http://www.w3.org/2000/svg">
<g filter="url(#filter0_d_22_30)">
<path d="M165.727 18H22V48.8861L31.8523 58H175V27.6203L165.727 18Z" stroke="white" stroke-width="5"/>
<path d="M164 22H26V47L33.5 54H171V29.5L164 22Z" stroke="#FFEDC9"/>
<path d="M52.3713 45V30.4H56.8913C57.7579 30.4 58.5179 30.58 59.1713 30.94C59.8246 31.2867 60.3313 31.7733 60.6913 32.4C61.0513 33.0267 61.2313 33.76 61.2313 34.6C61.2313 35.5867 60.9713 36.4333 60.4513 37.14C59.9446 37.8467 59.2513 38.3333 58.3713 38.6L61.4313 45H59.3113L56.5113 38.8H54.1713V45H52.3713ZM54.1713 37.18H56.8913C57.6379 37.18 58.2379 36.9467 58.6913 36.48C59.1446 36 59.3713 35.3733 59.3713 34.6C59.3713 33.8133 59.1446 33.1867 58.6913 32.72C58.2379 32.2533 57.6379 32.02 56.8913 32.02H54.1713V37.18ZM68.5234 45.2C67.6568 45.2 66.8968 45.0267 66.2434 44.68C65.6034 44.3333 65.1034 43.8467 64.7434 43.22C64.3968 42.58 64.2234 41.84 64.2234 41V38C64.2234 37.1467 64.3968 36.4067 64.7434 35.78C65.1034 35.1533 65.6034 34.6667 66.2434 34.32C66.8968 33.9733 67.6568 33.8 68.5234 33.8C69.3901 33.8 70.1434 33.9733 70.7834 34.32C71.4368 34.6667 71.9368 35.1533 72.2834 35.78C72.6434 36.4067 72.8234 37.1467 72.8234 38V39.94H65.9834V41C65.9834 41.8667 66.2034 42.5333 66.6434 43C67.0834 43.4533 67.7101 43.68 68.5234 43.68C69.2168 43.68 69.7768 43.56 70.2034 43.32C70.6301 43.0667 70.8901 42.6933 70.9834 42.2H72.7834C72.6634 43.12 72.2101 43.8533 71.4234 44.4C70.6501 44.9333 69.6834 45.2 68.5234 45.2ZM71.0634 38.74V38C71.0634 37.1333 70.8434 36.4667 70.4034 36C69.9768 35.5333 69.3501 35.3 68.5234 35.3C67.7101 35.3 67.0834 35.5333 66.6434 36C66.2034 36.4667 65.9834 37.1333 65.9834 38V38.58H71.2034L71.0634 38.74ZM77.7356 48.6V46.96H81.2356C81.7956 46.96 82.2023 46.8333 82.4556 46.58C82.7223 46.3267 82.8556 45.9333 82.8556 45.4V44L82.8956 42H82.5356L82.8756 41.7C82.8756 42.5 82.609 43.1333 82.0756 43.6C81.5423 44.0667 80.829 44.3 79.9356 44.3C78.8023 44.3 77.909 43.9333 77.2556 43.2C76.6023 42.4533 76.2756 41.4533 76.2756 40.2V37.88C76.2756 36.6267 76.6023 35.6333 77.2556 34.9C77.909 34.1667 78.8023 33.8 79.9356 33.8C80.829 33.8 81.5423 34.0333 82.0756 34.5C82.609 34.9667 82.8756 35.6 82.8756 36.4L82.5356 36.1H82.8756V34H84.6556V45.4C84.6556 46.3867 84.349 47.1667 83.7356 47.74C83.1356 48.3133 82.2956 48.6 81.2156 48.6H77.7356ZM80.4756 42.74C81.2223 42.74 81.809 42.5067 82.2356 42.04C82.6623 41.5733 82.8756 40.9267 82.8756 40.1V38C82.8756 37.1733 82.6623 36.5267 82.2356 36.06C81.809 35.5933 81.2223 35.36 80.4756 35.36C79.7156 35.36 79.1223 35.5867 78.6956 36.04C78.2823 36.4933 78.0756 37.1467 78.0756 38V40.1C78.0756 40.9533 78.2823 41.6067 78.6956 42.06C79.1223 42.5133 79.7156 42.74 80.4756 42.74ZM88.2078 45V43.36H92.1078V35.64H88.7078V34H93.9078V43.36H97.6078V45H88.2078ZM92.8078 32.02C92.3678 32.02 92.0211 31.9067 91.7678 31.68C91.5145 31.4533 91.3878 31.1467 91.3878 30.76C91.3878 30.36 91.5145 30.0467 91.7678 29.82C92.0211 29.58 92.3678 29.46 92.8078 29.46C93.2478 29.46 93.5945 29.58 93.8478 29.82C94.1011 30.0467 94.2278 30.36 94.2278 30.76C94.2278 31.1467 94.1011 31.4533 93.8478 31.68C93.5945 31.9067 93.2478 32.02 92.8078 32.02ZM104.16 45.16C103.413 45.16 102.76 45.0467 102.2 44.82C101.653 44.58 101.213 44.2467 100.88 43.82C100.56 43.3933 100.367 42.8867 100.3 42.3H102.1C102.18 42.6867 102.393 42.9933 102.74 43.22C103.1 43.4467 103.573 43.56 104.16 43.56H105C105.707 43.56 106.233 43.42 106.58 43.14C106.927 42.8467 107.1 42.46 107.1 41.98C107.1 41.5133 106.94 41.1467 106.62 40.88C106.313 40.6 105.853 40.4133 105.24 40.32L103.76 40.08C102.68 39.8933 101.873 39.56 101.34 39.08C100.82 38.5867 100.56 37.8733 100.56 36.94C100.56 35.9533 100.873 35.1933 101.5 34.66C102.127 34.1133 103.067 33.84 104.32 33.84H105.08C106.133 33.84 106.98 34.0867 107.62 34.58C108.26 35.0733 108.647 35.74 108.78 36.58H106.98C106.9 36.2333 106.7 35.96 106.38 35.76C106.06 35.5467 105.627 35.44 105.08 35.44H104.32C103.64 35.44 103.14 35.5667 102.82 35.82C102.513 36.0733 102.36 36.4533 102.36 36.96C102.36 37.4133 102.493 37.7467 102.76 37.96C103.027 38.1733 103.447 38.3267 104.02 38.42L105.5 38.66C106.687 38.8467 107.547 39.1933 108.08 39.7C108.627 40.2067 108.9 40.94 108.9 41.9C108.9 42.9133 108.573 43.7133 107.92 44.3C107.28 44.8733 106.307 45.16 105 45.16H104.16ZM117.692 45C116.746 45 116.006 44.7467 115.472 44.24C114.952 43.7333 114.692 43.02 114.692 42.1V35.64H111.592V34H114.692V30.9H116.492V34H120.892V35.64H116.492V42.1C116.492 42.94 116.892 43.36 117.692 43.36H120.692V45H117.692ZM128.484 45.2C127.618 45.2 126.858 45.0267 126.204 44.68C125.564 44.3333 125.064 43.8467 124.704 43.22C124.358 42.58 124.184 41.84 124.184 41V38C124.184 37.1467 124.358 36.4067 124.704 35.78C125.064 35.1533 125.564 34.6667 126.204 34.32C126.858 33.9733 127.618 33.8 128.484 33.8C129.351 33.8 130.104 33.9733 130.744 34.32C131.398 34.6667 131.898 35.1533 132.244 35.78C132.604 36.4067 132.784 37.1467 132.784 38V39.94H125.944V41C125.944 41.8667 126.164 42.5333 126.604 43C127.044 43.4533 127.671 43.68 128.484 43.68C129.178 43.68 129.738 43.56 130.164 43.32C130.591 43.0667 130.851 42.6933 130.944 42.2H132.744C132.624 43.12 132.171 43.8533 131.384 44.4C130.611 44.9333 129.644 45.2 128.484 45.2ZM131.024 38.74V38C131.024 37.1333 130.804 36.4667 130.364 36C129.938 35.5333 129.311 35.3 128.484 35.3C127.671 35.3 127.044 35.5333 126.604 36C126.164 36.4667 125.944 37.1333 125.944 38V38.58H131.164L131.024 38.74ZM136.697 45V34H138.457V36.1H138.877L138.297 37.4C138.297 36.2133 138.55 35.32 139.057 34.72C139.577 34.1067 140.343 33.8 141.357 33.8C142.517 33.8 143.437 34.1667 144.117 34.9C144.81 35.62 145.157 36.6 145.157 37.84V38.5H143.357V38C143.357 37.1333 143.143 36.4733 142.717 36.02C142.303 35.5533 141.71 35.32 140.937 35.32C140.177 35.32 139.577 35.5533 139.137 36.02C138.71 36.4867 138.497 37.1467 138.497 38V45H136.697Z" fill="white"/>
</g>
<defs>
<filter id="filter0_d_22_30" x="0.700001" y="0.700001" width="195.6" height="82.6" filterUnits="userSpaceOnUse" color-interpolation-filters="sRGB">
<feFlood flood-opacity="0" result="BackgroundImageFix"/>
<feColorMatrix in="SourceAlpha" type="matrix" values="0 0 0 0 0 0 0 0 0 0 0 0 0 0 0 0 0 0 127 0" result="hardAlpha"/>
<feOffset dy="4"/>
<feGaussianBlur stdDeviation="9.4"/>
<feComposite in2="hardAlpha" operator="out"/>
<feColorMatrix type="matrix" values="0 0 0 0 0 0 0 0 0 0 0 0 0 0 0 0 0 0 1 0"/>
<feBlend mode="normal" in2="BackgroundImageFix" result="effect1_dropShadow_22_30"/>
<feBlend mode="normal" in="SourceGraphic" in2="effect1_dropShadow_22_30" result="shape"/>
</filter>
</defs>
</svg>
