<svg width="314" height="384" viewBox="0 0 314 384" fill="none" xmlns="http://www.w3.org/2000/svg">
<g clip-path="url(#clip0_20_13)">
<path d="M297.013 0.607666H268.658L277.468 5.36716H301.594L297.013 0.607666Z" fill="#FF9F2F"/>
<path d="M268.658 0.607666H297.013L301.594 5.36716M268.658 0.607666L277.468 5.36716H301.594M268.658 0.607666H246.076M301.594 5.36716L312.709 16.9115L312.608 66.2279V337.317M246.076 0.607666H223.494L216.405 7.69627M246.076 0.607666L241.721 3.03805H227.747L224.911 7.69627H216.405M216.405 7.69627L214.076 10.0254H187.443H141.873H42.7341" stroke="#FF9F2F" stroke-width="1.21519"/>
<path d="M16.3038 383.291H44.6582L35.8481 378.532H11.7217L16.3038 383.291Z" fill="#FF9F2F"/>
<path d="M44.6583 383.291H16.3039L11.7217 378.532M44.6583 383.291L35.8482 378.532H11.7217M44.6583 383.291H67.2406M11.7217 378.532L0.607666 366.987V316.354V47.6962L43.1393 9.92407M67.2406 383.291H89.8229L96.9115 376.203M67.2406 383.291L71.595 380.861H85.5697L88.4051 376.203H96.9115M96.9115 376.203L99.2406 373.873H125.873H133.468H274.734L312.81 336.911" stroke="#FF9F2F" stroke-width="1.21519"/>
</g>
<defs>
<clipPath id="clip0_20_13">
<rect width="313.316" height="384" fill="white"/>
</clipPath>
</defs>
</svg>
