<svg width="351" height="162" viewBox="0 0 351 162" fill="none" xmlns="http://www.w3.org/2000/svg">
<g filter="url(#filter0_d_3_86)">
<mask id="path-1-inside-1_3_86" fill="white">
<path d="M78.8333 75.4334L97.2943 75.3875V67.596H71.0458V85.425L78.8333 77.6335V75.4334ZM97.2943 79.4209L80.5282 79.375L71 88.9083V99.0833H97.2943V91.2917H79.6578L83.7348 87.2127H97.2943V79.4209ZM130.452 92.3459L130.589 92.2084C132.375 89.5958 133.337 86.5249 133.337 83.3167C133.337 80.1543 132.375 77.0834 130.589 74.4708C130.543 74.4253 130.497 74.3794 130.452 74.3335C127.52 70.1168 122.71 67.596 117.579 67.596H101.913V86.6167L109.746 78.7793V75.4334H117.579C117.763 75.4334 117.946 75.4334 118.129 75.4334C120.511 75.5711 122.664 76.8084 124.038 78.7793C124.038 78.8252 124.038 78.8252 124.038 78.8252C124.909 80.1543 125.367 81.7125 125.367 83.3167C125.367 84.9208 124.909 86.4794 123.992 87.8084C122.527 89.9168 120.145 91.2 117.579 91.2H109.746V82.3086L101.913 90.1459V99.0833L117.579 99.0833C122.71 99.0833 127.52 96.5625 130.452 92.3459ZM145.578 75.4334L164.038 75.3875V67.596H137.79V85.425L145.578 77.6335V75.4334ZM164.038 79.4209L147.272 79.375L137.744 88.9083V99.0833H164.038V91.2917H146.402L150.479 87.2127H164.038V79.4209ZM168.657 67.6419V85.746L176.445 77.9542V67.6419H168.657ZM190.05 92.3917L197.654 100V67.596H190.325L190.004 67.917L181.438 76.4877L176.445 81.4834L168.657 89.2752V99.0833H169.894L170.077 98.9L189.867 79.1V92.2084L190.05 92.3917ZM229.766 74.3335V74.2876L236.134 67.917C235.584 67.7793 235.034 67.6875 234.439 67.6419C234.255 67.6419 234.072 67.6419 233.889 67.6419C233.706 67.6419 233.522 67.6419 233.339 67.6419H224.04V74.3335H225.735H229.766ZM238.47 82.9501L238.378 82.9042C240.669 81.3919 242.18 78.8253 242.18 75.8917C242.18 75.3419 242.134 74.7918 242.043 74.2417C241.676 72.5002 240.806 70.9875 239.569 69.8417L234.851 74.5627C235.172 74.7918 235.401 75.1583 235.492 75.5711C235.492 75.6626 235.492 75.7544 235.492 75.8917C235.492 76.7169 234.943 77.1752 234.714 77.3126C234.439 77.4958 234.118 77.5876 233.797 77.5876L230.224 81.2542V84.7375L233.797 88.2208C234.118 88.2208 234.439 88.3126 234.714 88.4959C234.943 88.6332 235.492 89.0916 235.492 89.9168C235.492 90.0542 235.492 90.1917 235.492 90.2834C235.355 90.9709 234.805 91.4751 234.118 91.5667H223.903V98.2583H233.202C233.431 98.2583 233.66 98.2583 233.889 98.2583C234.118 98.2583 234.347 98.2583 234.576 98.2583C238.332 97.9834 241.401 95.2334 242.134 91.6125C242.226 91.0625 242.272 90.5125 242.272 89.9627C242.272 87.0291 240.76 84.4625 238.47 82.9501ZM247.861 70.1168C247.861 71.2473 248.136 72.0419 248.686 72.5002C249.236 72.9585 249.893 73.1877 250.656 73.1877C251.45 73.1877 252.122 72.9585 252.672 72.5002C253.252 72.0419 253.542 71.2473 253.542 70.1168C253.542 69.0169 253.252 68.2223 252.672 67.7334C252.122 67.2445 251.45 67 250.656 67C249.893 67 249.236 67.2445 248.686 67.7334C248.136 68.2223 247.861 69.0169 247.861 70.1168ZM279.954 87.5333L280 78.5961C280 78.4584 280 78.321 280 78.1833C280 78.046 280 77.9086 280 77.7709C279.954 77.0375 279.862 76.35 279.679 75.6625L273.678 81.6666V88.1749C273.541 90.4209 271.754 92.2084 269.556 92.2084C267.861 92.2084 266.395 91.1084 265.753 89.5958L261.127 94.225C261.905 95.2792 262.867 96.1959 263.967 96.8833C265.57 97.9375 267.494 98.5333 269.556 98.5333C271.617 98.5333 273.541 97.9375 275.144 96.8833C277.938 95.05 279.816 91.9334 279.954 88.3585C279.954 88.2208 279.954 88.0835 279.954 87.9458C279.954 87.8084 279.954 87.6711 279.954 87.5333ZM269.601 73.9211L269.647 74.0584C271.388 74.0584 272.854 75.1583 273.449 76.7169L278.076 72.0878C276.977 70.5292 275.465 69.292 273.724 68.5127C272.487 67.9625 271.113 67.6419 269.647 67.6419C268.181 67.6419 266.807 67.9625 265.57 68.5127C262.043 70.025 259.524 73.4628 259.249 77.5417C259.249 77.7709 259.249 78.0001 259.249 78.2292C259.249 78.4584 259.249 78.6875 259.249 78.9167V87.2583C259.249 87.4874 259.249 87.7166 259.249 87.9458C259.249 88.1749 259.249 88.4041 259.249 88.6332C259.295 89.2752 259.386 89.9168 259.524 90.5584L265.524 84.5543V77.7709C265.753 75.6166 267.494 73.9211 269.601 73.9211Z"/>
</mask>
<path d="M78.8333 75.4334L97.2943 75.3875V67.596H71.0458V85.425L78.8333 77.6335V75.4334ZM97.2943 79.4209L80.5282 79.375L71 88.9083V99.0833H97.2943V91.2917H79.6578L83.7348 87.2127H97.2943V79.4209ZM130.452 92.3459L130.589 92.2084C132.375 89.5958 133.337 86.5249 133.337 83.3167C133.337 80.1543 132.375 77.0834 130.589 74.4708C130.543 74.4253 130.497 74.3794 130.452 74.3335C127.52 70.1168 122.71 67.596 117.579 67.596H101.913V86.6167L109.746 78.7793V75.4334H117.579C117.763 75.4334 117.946 75.4334 118.129 75.4334C120.511 75.5711 122.664 76.8084 124.038 78.7793C124.038 78.8252 124.038 78.8252 124.038 78.8252C124.909 80.1543 125.367 81.7125 125.367 83.3167C125.367 84.9208 124.909 86.4794 123.992 87.8084C122.527 89.9168 120.145 91.2 117.579 91.2H109.746V82.3086L101.913 90.1459V99.0833L117.579 99.0833C122.71 99.0833 127.52 96.5625 130.452 92.3459ZM145.578 75.4334L164.038 75.3875V67.596H137.79V85.425L145.578 77.6335V75.4334ZM164.038 79.4209L147.272 79.375L137.744 88.9083V99.0833H164.038V91.2917H146.402L150.479 87.2127H164.038V79.4209ZM168.657 67.6419V85.746L176.445 77.9542V67.6419H168.657ZM190.05 92.3917L197.654 100V67.596H190.325L190.004 67.917L181.438 76.4877L176.445 81.4834L168.657 89.2752V99.0833H169.894L170.077 98.9L189.867 79.1V92.2084L190.05 92.3917ZM229.766 74.3335V74.2876L236.134 67.917C235.584 67.7793 235.034 67.6875 234.439 67.6419C234.255 67.6419 234.072 67.6419 233.889 67.6419C233.706 67.6419 233.522 67.6419 233.339 67.6419H224.04V74.3335H225.735H229.766ZM238.47 82.9501L238.378 82.9042C240.669 81.3919 242.18 78.8253 242.18 75.8917C242.18 75.3419 242.134 74.7918 242.043 74.2417C241.676 72.5002 240.806 70.9875 239.569 69.8417L234.851 74.5627C235.172 74.7918 235.401 75.1583 235.492 75.5711C235.492 75.6626 235.492 75.7544 235.492 75.8917C235.492 76.7169 234.943 77.1752 234.714 77.3126C234.439 77.4958 234.118 77.5876 233.797 77.5876L230.224 81.2542V84.7375L233.797 88.2208C234.118 88.2208 234.439 88.3126 234.714 88.4959C234.943 88.6332 235.492 89.0916 235.492 89.9168C235.492 90.0542 235.492 90.1917 235.492 90.2834C235.355 90.9709 234.805 91.4751 234.118 91.5667H223.903V98.2583H233.202C233.431 98.2583 233.66 98.2583 233.889 98.2583C234.118 98.2583 234.347 98.2583 234.576 98.2583C238.332 97.9834 241.401 95.2334 242.134 91.6125C242.226 91.0625 242.272 90.5125 242.272 89.9627C242.272 87.0291 240.76 84.4625 238.47 82.9501ZM247.861 70.1168C247.861 71.2473 248.136 72.0419 248.686 72.5002C249.236 72.9585 249.893 73.1877 250.656 73.1877C251.45 73.1877 252.122 72.9585 252.672 72.5002C253.252 72.0419 253.542 71.2473 253.542 70.1168C253.542 69.0169 253.252 68.2223 252.672 67.7334C252.122 67.2445 251.45 67 250.656 67C249.893 67 249.236 67.2445 248.686 67.7334C248.136 68.2223 247.861 69.0169 247.861 70.1168ZM279.954 87.5333L280 78.5961C280 78.4584 280 78.321 280 78.1833C280 78.046 280 77.9086 280 77.7709C279.954 77.0375 279.862 76.35 279.679 75.6625L273.678 81.6666V88.1749C273.541 90.4209 271.754 92.2084 269.556 92.2084C267.861 92.2084 266.395 91.1084 265.753 89.5958L261.127 94.225C261.905 95.2792 262.867 96.1959 263.967 96.8833C265.57 97.9375 267.494 98.5333 269.556 98.5333C271.617 98.5333 273.541 97.9375 275.144 96.8833C277.938 95.05 279.816 91.9334 279.954 88.3585C279.954 88.2208 279.954 88.0835 279.954 87.9458C279.954 87.8084 279.954 87.6711 279.954 87.5333ZM269.601 73.9211L269.647 74.0584C271.388 74.0584 272.854 75.1583 273.449 76.7169L278.076 72.0878C276.977 70.5292 275.465 69.292 273.724 68.5127C272.487 67.9625 271.113 67.6419 269.647 67.6419C268.181 67.6419 266.807 67.9625 265.57 68.5127C262.043 70.025 259.524 73.4628 259.249 77.5417C259.249 77.7709 259.249 78.0001 259.249 78.2292C259.249 78.4584 259.249 78.6875 259.249 78.9167V87.2583C259.249 87.4874 259.249 87.7166 259.249 87.9458C259.249 88.1749 259.249 88.4041 259.249 88.6332C259.295 89.2752 259.386 89.9168 259.524 90.5584L265.524 84.5543V77.7709C265.753 75.6166 267.494 73.9211 269.601 73.9211Z" stroke="#4B3D2C" stroke-width="4" shape-rendering="crispEdges" mask="url(#path-1-inside-1_3_86)"/>
</g>
<defs>
<filter id="filter0_d_3_86" x="0.599998" y="0.599998" width="349.8" height="173.8" filterUnits="userSpaceOnUse" color-interpolation-filters="sRGB">
<feFlood flood-opacity="0" result="BackgroundImageFix"/>
<feColorMatrix in="SourceAlpha" type="matrix" values="0 0 0 0 0 0 0 0 0 0 0 0 0 0 0 0 0 0 127 0" result="hardAlpha"/>
<feOffset dy="4"/>
<feGaussianBlur stdDeviation="35.2"/>
<feComposite in2="hardAlpha" operator="out"/>
<feColorMatrix type="matrix" values="0 0 0 0 1 0 0 0 0 0.623529 0 0 0 0 0.184314 0 0 0 1 0"/>
<feBlend mode="normal" in2="BackgroundImageFix" result="effect1_dropShadow_3_86"/>
<feBlend mode="normal" in="SourceGraphic" in2="effect1_dropShadow_3_86" result="shape"/>
</filter>
</defs>
</svg>
