<svg width="1512" height="364" viewBox="0 0 1512 364" fill="none" xmlns="http://www.w3.org/2000/svg">
<g filter="url(#filter0_d_5_321)">
<mask id="path-1-inside-1_5_321" fill="white">
<path d="M113.059 232.266L235.75 232.575V284.99H61.3044V165.05L113.059 217.465V232.266ZM235.75 205.441L124.324 205.75L61 141.617V73.1667H235.75V125.583H118.539L145.634 153.023H235.75V205.441ZM456.112 118.491L457.024 119.416C468.897 136.992 475.29 157.651 475.29 179.233C475.29 200.507 468.897 221.166 457.024 238.742C456.719 239.048 456.415 239.357 456.112 239.666C436.626 268.032 404.661 284.99 370.563 284.99H266.444V157.033L318.505 209.757V232.266H370.563C371.781 232.266 372.998 232.266 374.217 232.266C390.047 231.34 404.356 223.017 413.489 209.757C413.489 209.448 413.489 209.448 413.489 209.448C419.273 200.507 422.319 190.025 422.319 179.233C422.319 168.442 419.273 157.957 413.184 149.016C403.443 134.833 387.612 126.2 370.563 126.2H318.505V186.015L266.444 133.291V73.1667H370.563C404.661 73.1667 436.626 90.1249 456.112 118.491ZM556.639 232.266L679.327 232.575V284.99H504.883V165.05L556.639 217.465V232.266ZM679.327 205.441L567.901 205.75L504.578 141.617V73.1667H679.327V125.583H562.118L589.214 153.023H679.327V205.441ZM710.023 284.682V162.891L761.779 215.308V284.682H710.023ZM852.197 118.183L902.733 67V284.99H854.024L851.892 282.831L794.962 225.173L761.779 191.566L710.023 139.149V73.1667H718.244L719.461 74.4L850.98 207.6V119.416L852.197 118.183ZM1116.15 239.666V239.974L1158.47 282.831C1154.81 283.758 1151.16 284.375 1147.2 284.682C1145.98 284.682 1144.77 284.682 1143.55 284.682C1142.33 284.682 1141.11 284.682 1139.9 284.682H1078.09V239.666H1089.36H1116.15ZM1173.99 181.699L1173.38 182.008C1188.61 192.182 1198.65 209.448 1198.65 229.183C1198.65 232.881 1198.35 236.582 1197.74 240.283C1195.3 251.999 1189.52 262.175 1181.3 269.883L1149.94 238.124C1152.07 236.582 1153.6 234.117 1154.21 231.34C1154.21 230.725 1154.21 230.107 1154.21 229.183C1154.21 223.632 1150.55 220.548 1149.03 219.624C1147.2 218.392 1145.07 217.774 1142.94 217.774L1119.19 193.108V169.675L1142.94 146.242C1145.07 146.242 1147.2 145.624 1149.03 144.391C1150.55 143.467 1154.21 140.384 1154.21 134.833C1154.21 133.908 1154.21 132.983 1154.21 132.366C1153.29 127.741 1149.64 124.35 1145.07 123.733H1077.18V78.7166H1138.98C1140.5 78.7166 1142.03 78.7166 1143.55 78.7166C1145.07 78.7166 1146.59 78.7166 1148.11 78.7166C1173.08 80.5665 1193.48 99.0665 1198.35 123.425C1198.96 127.125 1199.26 130.825 1199.26 134.524C1199.26 154.259 1189.22 171.525 1173.99 181.699ZM1236.41 268.032C1236.41 260.427 1238.24 255.082 1241.89 251.999C1245.54 248.915 1249.91 247.374 1254.98 247.374C1260.26 247.374 1264.72 248.915 1268.38 251.999C1272.23 255.082 1274.16 260.427 1274.16 268.032C1274.16 275.432 1272.23 280.777 1268.38 284.066C1264.72 287.355 1260.26 289 1254.98 289C1249.91 289 1245.54 287.355 1241.89 284.066C1238.24 280.777 1236.41 275.432 1236.41 268.032ZM1449.7 150.867L1450 210.99C1450 211.916 1450 212.84 1450 213.767C1450 214.691 1450 215.615 1450 216.541C1449.7 221.475 1449.09 226.1 1447.87 230.725L1407.99 190.334V146.55C1407.07 131.441 1395.2 119.416 1380.59 119.416C1369.32 119.416 1359.58 126.816 1355.32 136.992L1324.57 105.85C1329.74 98.7582 1336.14 92.5915 1343.45 87.9666C1354.1 80.8749 1366.89 76.8666 1380.59 76.8666C1394.29 76.8666 1407.07 80.8749 1417.73 87.9666C1436.3 100.3 1448.78 121.266 1449.7 145.315C1449.7 146.242 1449.7 147.166 1449.7 148.092C1449.7 149.016 1449.7 149.94 1449.7 150.867ZM1380.89 242.44L1381.2 241.516C1392.77 241.516 1402.51 234.117 1406.46 223.632L1437.21 254.773C1429.91 265.258 1419.86 273.581 1408.29 278.824C1400.07 282.525 1390.94 284.682 1381.2 284.682C1371.45 284.682 1362.32 282.525 1354.1 278.824C1330.66 268.65 1313.91 245.523 1312.09 218.083C1312.09 216.541 1312.09 215 1312.09 213.458C1312.09 211.916 1312.09 210.375 1312.09 208.833V152.717C1312.09 151.175 1312.09 149.634 1312.09 148.092C1312.09 146.55 1312.09 145.009 1312.09 143.467C1312.39 139.149 1313 134.833 1313.91 130.516L1353.8 170.908V216.541C1355.32 231.033 1366.89 242.44 1380.89 242.44Z"/>
</mask>
<path d="M113.059 232.266L235.75 232.575V284.99H61.3044V165.05L113.059 217.465V232.266ZM235.75 205.441L124.324 205.75L61 141.617V73.1667H235.75V125.583H118.539L145.634 153.023H235.75V205.441ZM456.112 118.491L457.024 119.416C468.897 136.992 475.29 157.651 475.29 179.233C475.29 200.507 468.897 221.166 457.024 238.742C456.719 239.048 456.415 239.357 456.112 239.666C436.626 268.032 404.661 284.99 370.563 284.99H266.444V157.033L318.505 209.757V232.266H370.563C371.781 232.266 372.998 232.266 374.217 232.266C390.047 231.34 404.356 223.017 413.489 209.757C413.489 209.448 413.489 209.448 413.489 209.448C419.273 200.507 422.319 190.025 422.319 179.233C422.319 168.442 419.273 157.957 413.184 149.016C403.443 134.833 387.612 126.2 370.563 126.2H318.505V186.015L266.444 133.291V73.1667H370.563C404.661 73.1667 436.626 90.1249 456.112 118.491ZM556.639 232.266L679.327 232.575V284.99H504.883V165.05L556.639 217.465V232.266ZM679.327 205.441L567.901 205.75L504.578 141.617V73.1667H679.327V125.583H562.118L589.214 153.023H679.327V205.441ZM710.023 284.682V162.891L761.779 215.308V284.682H710.023ZM852.197 118.183L902.733 67V284.99H854.024L851.892 282.831L794.962 225.173L761.779 191.566L710.023 139.149V73.1667H718.244L719.461 74.4L850.98 207.6V119.416L852.197 118.183ZM1116.15 239.666V239.974L1158.47 282.831C1154.81 283.758 1151.16 284.375 1147.2 284.682C1145.98 284.682 1144.77 284.682 1143.55 284.682C1142.33 284.682 1141.11 284.682 1139.9 284.682H1078.09V239.666H1089.36H1116.15ZM1173.99 181.699L1173.38 182.008C1188.61 192.182 1198.65 209.448 1198.65 229.183C1198.65 232.881 1198.35 236.582 1197.74 240.283C1195.3 251.999 1189.52 262.175 1181.3 269.883L1149.94 238.124C1152.07 236.582 1153.6 234.117 1154.21 231.34C1154.21 230.725 1154.21 230.107 1154.21 229.183C1154.21 223.632 1150.55 220.548 1149.03 219.624C1147.2 218.392 1145.07 217.774 1142.94 217.774L1119.19 193.108V169.675L1142.94 146.242C1145.07 146.242 1147.2 145.624 1149.03 144.391C1150.55 143.467 1154.21 140.384 1154.21 134.833C1154.21 133.908 1154.21 132.983 1154.21 132.366C1153.29 127.741 1149.64 124.35 1145.07 123.733H1077.18V78.7166H1138.98C1140.5 78.7166 1142.03 78.7166 1143.55 78.7166C1145.07 78.7166 1146.59 78.7166 1148.11 78.7166C1173.08 80.5665 1193.48 99.0665 1198.35 123.425C1198.96 127.125 1199.26 130.825 1199.26 134.524C1199.26 154.259 1189.22 171.525 1173.99 181.699ZM1236.41 268.032C1236.41 260.427 1238.24 255.082 1241.89 251.999C1245.54 248.915 1249.91 247.374 1254.98 247.374C1260.26 247.374 1264.72 248.915 1268.38 251.999C1272.23 255.082 1274.16 260.427 1274.16 268.032C1274.16 275.432 1272.23 280.777 1268.38 284.066C1264.72 287.355 1260.26 289 1254.98 289C1249.91 289 1245.54 287.355 1241.89 284.066C1238.24 280.777 1236.41 275.432 1236.41 268.032ZM1449.7 150.867L1450 210.99C1450 211.916 1450 212.84 1450 213.767C1450 214.691 1450 215.615 1450 216.541C1449.7 221.475 1449.09 226.1 1447.87 230.725L1407.99 190.334V146.55C1407.07 131.441 1395.2 119.416 1380.59 119.416C1369.32 119.416 1359.58 126.816 1355.32 136.992L1324.57 105.85C1329.74 98.7582 1336.14 92.5915 1343.45 87.9666C1354.1 80.8749 1366.89 76.8666 1380.59 76.8666C1394.29 76.8666 1407.07 80.8749 1417.73 87.9666C1436.3 100.3 1448.78 121.266 1449.7 145.315C1449.7 146.242 1449.7 147.166 1449.7 148.092C1449.7 149.016 1449.7 149.94 1449.7 150.867ZM1380.89 242.44L1381.2 241.516C1392.77 241.516 1402.51 234.117 1406.46 223.632L1437.21 254.773C1429.91 265.258 1419.86 273.581 1408.29 278.824C1400.07 282.525 1390.94 284.682 1381.2 284.682C1371.45 284.682 1362.32 282.525 1354.1 278.824C1330.66 268.65 1313.91 245.523 1312.09 218.083C1312.09 216.541 1312.09 215 1312.09 213.458C1312.09 211.916 1312.09 210.375 1312.09 208.833V152.717C1312.09 151.175 1312.09 149.634 1312.09 148.092C1312.09 146.55 1312.09 145.009 1312.09 143.467C1312.39 139.149 1313 134.833 1313.91 130.516L1353.8 170.908V216.541C1355.32 231.033 1366.89 242.44 1380.89 242.44Z" stroke="#824B24" stroke-width="2" shape-rendering="crispEdges" mask="url(#path-1-inside-1_5_321)"/>
</g>
<defs>
<filter id="filter0_d_5_321" x="-9.4" y="0.599998" width="1529.8" height="362.8" filterUnits="userSpaceOnUse" color-interpolation-filters="sRGB">
<feFlood flood-opacity="0" result="BackgroundImageFix"/>
<feColorMatrix in="SourceAlpha" type="matrix" values="0 0 0 0 0 0 0 0 0 0 0 0 0 0 0 0 0 0 127 0" result="hardAlpha"/>
<feOffset dy="4"/>
<feGaussianBlur stdDeviation="35.2"/>
<feComposite in2="hardAlpha" operator="out"/>
<feColorMatrix type="matrix" values="0 0 0 0 1 0 0 0 0 0.623529 0 0 0 0 0.184314 0 0 0 1 0"/>
<feBlend mode="normal" in2="BackgroundImageFix" result="effect1_dropShadow_5_321"/>
<feBlend mode="normal" in="SourceGraphic" in2="effect1_dropShadow_5_321" result="shape"/>
</filter>
</defs>
</svg>
