<svg width="430" height="212" viewBox="0 0 430 212" fill="none" xmlns="http://www.w3.org/2000/svg">
<g filter="url(#filter0_d_12_429)">
<path d="M203.707 145.358H214.659L220.69 139.477H263.226L266.401 135.662H214.659L203.707 145.358Z" fill="#FF9F2F"/>
<path d="M41.4978 53.805L43.4024 131.211L79.4313 164.43H182.28L203.707 145.357L214.659 135.661H266.401H387.502V56.1892L372.424 39.5H259.417L245.291 53.805H41.4978Z" fill="black" fill-opacity="0.59"/>
<path d="M203.707 145.357L182.28 164.43H79.4313L43.4024 131.211L41.4978 53.805H245.291L259.417 39.5H372.424L387.502 56.1892V135.661H266.401M203.707 145.357H214.659L220.69 139.477H263.226L266.401 135.661M203.707 145.357L214.659 135.661H266.401" stroke="#FF9F2F" stroke-width="5.08624"/>
</g>
<path d="M66.5752 142.656L79.2726 154.259H96.5729L103.08 159.504H147.363M147.363 159.504L158.155 150.921H188.629L214.024 129.781H274.178M147.363 159.504L140.22 164.59" stroke="#FF9F2F" stroke-width="1.90734"/>
<path d="M114.864 147.337L122.22 139.635H186.248L181.568 144.491H154.151L151.978 147.337H114.864Z" fill="#FF9F2F" stroke="#FF9F2F" stroke-width="1.77718"/>
<path d="M79.5903 146.834L86.7789 139.635H90.9581L83.7697 146.834H79.5903Z" fill="#FF9F2F" stroke="#FF9F2F" stroke-width="1.77718"/>
<path d="M88.1162 146.834L95.3049 139.635H99.4844L92.2957 146.834H88.1162Z" fill="#FF9F2F" stroke="#FF9F2F" stroke-width="1.77718"/>
<path d="M96.6418 146.834L103.831 139.635H108.01L100.821 146.834H96.6418Z" fill="#FF9F2F" stroke="#FF9F2F" stroke-width="1.77718"/>
<path d="M105.168 146.834L112.357 139.635H116.536L109.348 146.834H105.168Z" fill="#FF9F2F" stroke="#FF9F2F" stroke-width="1.77718"/>
<path d="M320.206 59.686L324.809 47.2883H327.825L323.222 59.686H320.206Z" fill="#FF9F2F" stroke="#FF9F2F" stroke-width="1.90734"/>
<path d="M325.285 59.5271L329.888 47.1294H332.903L328.301 59.5271H325.285Z" fill="#FF9F2F" stroke="#FF9F2F" stroke-width="1.90734"/>
<path d="M330.364 59.5271L334.966 47.1294H337.982L333.379 59.5271H330.364Z" fill="#FF9F2F" stroke="#FF9F2F" stroke-width="1.90734"/>
<path d="M335.126 59.5271L339.728 47.1294H342.744L338.141 59.5271H335.126Z" fill="#FF9F2F" stroke="#FF9F2F" stroke-width="1.90734"/>
<path d="M340.205 59.5271L344.807 47.1294H347.823L343.22 59.5271H340.205Z" fill="#FF9F2F" stroke="#FF9F2F" stroke-width="1.90734"/>
<path d="M345.283 59.5271L349.886 47.1294H352.902L348.299 59.5271H345.283Z" fill="#FF9F2F" stroke="#FF9F2F" stroke-width="1.90734"/>
<path d="M350.362 59.5271L354.965 47.1294H357.981L353.378 59.5271H350.362Z" fill="#FF9F2F" stroke="#FF9F2F" stroke-width="1.90734"/>
<path d="M355.441 59.5271L360.044 47.1294H363.06L358.457 59.5271H355.441Z" fill="#FF9F2F" stroke="#FF9F2F" stroke-width="1.90734"/>
<path d="M360.52 59.5271L365.123 47.1294H368.139L363.536 59.5271H360.52Z" fill="#FF9F2F" stroke="#FF9F2F" stroke-width="1.90734"/>
<path d="M284.875 87.4375C284.875 84.3125 286.167 81.5833 288.75 79.25C291 77.25 293.521 76.25 296.312 76.25V84.375C295.146 84.375 294.146 84.8958 293.312 85.9375C292.729 86.7708 292.438 87.75 292.438 88.875L284.875 87.4375ZM286.188 120V111.375H311.438V120H286.188ZM286.188 108.125C286.188 105.333 288.042 102.521 291.75 99.6875C292.292 99.2708 293.125 98.6667 294.25 97.875C295.292 97.1667 296.021 96.6458 296.438 96.3125C296.854 95.9792 297.5 95.5 298.375 94.875C301.125 92.9167 302.812 91.3958 303.438 90.3125C303.771 89.6875 303.938 89.1042 303.938 88.5625C303.938 86.3958 302.938 85.0625 300.938 84.5625C300.521 84.4375 300.125 84.375 299.75 84.375V76.25C305.042 76.25 308.708 78.3125 310.75 82.4375C311.625 84.2708 312.062 86.2917 312.062 88.5C312.062 91.75 310.958 94.5208 308.75 96.8125C307.667 97.9375 306.229 99.1458 304.438 100.438C303.771 100.938 302.771 101.604 301.438 102.438C298.771 104.229 297.146 105.562 296.562 106.438C296.229 107.021 296.062 107.583 296.062 108.125H286.188ZM327.812 120C321.854 120 318.104 115.854 316.562 107.562C316.062 104.812 315.812 101.667 315.812 98.125C315.812 84.7917 319.208 77.5417 326 76.375C326.583 76.2917 327.188 76.25 327.812 76.25V84.625C325.688 85.125 324.521 88.1458 324.312 93.6875C324.271 94.6458 324.25 95.8958 324.25 97.4375V98.8125C324.25 104.562 324.75 108.271 325.75 109.938C326.292 110.854 326.979 111.417 327.812 111.625V120ZM331.25 120V111.625C333.375 111.125 334.542 108.104 334.75 102.562C334.792 101.604 334.812 100.354 334.812 98.8125V97.4375C334.812 91.6875 334.312 87.9792 333.312 86.3125C332.771 85.3958 332.083 84.8333 331.25 84.625V76.25C337.208 76.25 340.958 80.3958 342.5 88.6875C343 91.4375 343.25 94.5833 343.25 98.125C343.25 111.458 339.854 118.708 333.062 119.875C332.479 119.958 331.875 120 331.25 120ZM347.75 120V75.25H356.375V120H347.75ZM358.188 102.062L365.875 84.375H375L367.125 102.062L375.125 120H366.062L358.188 102.062Z" fill="#FF9F2F"/>
<path d="M95.6406 112.961V85.6562H109.859V91.125H101.148V96.6719H106.188V102.18H101.148V112.961H95.6406ZM112.516 113V85.6562H118.023V113H112.516ZM121.305 113V85.6562H126.812V113H121.305ZM128.922 101.828V96.9453H129.43C131.096 96.9453 132.164 96.2682 132.633 94.9141C132.737 94.5755 132.789 94.224 132.789 93.8594C132.789 92.4792 132.138 91.5547 130.836 91.0859C130.419 90.9297 129.951 90.8516 129.43 90.8516H128.922V85.6562H129.781C133.193 85.7083 135.589 86.9193 136.969 89.2891C137.62 90.4089 137.945 91.6719 137.945 93.0781C137.919 95.7604 137.034 97.8177 135.289 99.25C136.591 100.083 137.424 101.594 137.789 103.781C137.815 104.042 137.841 104.289 137.867 104.523L138.531 113H133.453L132.867 106.047C132.659 103.964 132.06 102.674 131.07 102.18C130.602 101.971 130.029 101.854 129.352 101.828H128.922ZM140.172 106.828L145.133 105.07C145.133 105.721 145.315 106.294 145.68 106.789C146.044 107.284 146.409 107.609 146.773 107.766L147.32 108.039V113.117C145.107 113.117 143.219 112.154 141.656 110.227C140.693 109.003 140.198 107.87 140.172 106.828ZM140.484 93.1562C140.484 90.2917 141.708 88.1432 144.156 86.7109C145.276 86.0339 146.331 85.6823 147.32 85.6562V90.8125C146.669 90.9948 146.188 91.4635 145.875 92.2188C145.771 92.4531 145.719 92.7005 145.719 92.9609C145.719 94.0286 146.513 94.9401 148.102 95.6953C148.44 95.8516 148.987 96.0859 149.742 96.3984C150.992 96.8932 151.878 97.2969 152.398 97.6094C154.508 98.8594 155.914 100.135 156.617 101.438C157.138 102.453 157.398 103.586 157.398 104.836C157.398 107.206 156.5 109.237 154.703 110.93C153.167 112.388 151.422 113.117 149.469 113.117V108.039C150.484 107.909 151.201 107.375 151.617 106.438C151.799 106.021 151.891 105.565 151.891 105.07C151.891 103.742 150.901 102.648 148.922 101.789C148.557 101.633 147.984 101.411 147.203 101.125C146.292 100.812 145.654 100.565 145.289 100.383C143.049 99.3151 141.617 97.9349 140.992 96.2422C140.654 95.3307 140.484 94.3021 140.484 93.1562ZM149.469 90.8125V85.6562C151.656 85.6562 153.492 86.5807 154.977 88.4297C155.836 89.5234 156.279 90.513 156.305 91.3984L151.227 93.0781C151.227 91.9844 150.693 91.2422 149.625 90.8516C149.521 90.8255 149.469 90.8125 149.469 90.8125ZM158.766 91.0469V85.6562H175.68V91.0469H169.977V113H164.469V91.0469H158.766Z" fill="#FF9F2F"/>
<defs>
<filter id="filter0_d_12_429" x="-1.70864" y="0.356789" width="432.354" height="211.217" filterUnits="userSpaceOnUse" color-interpolation-filters="sRGB">
<feFlood flood-opacity="0" result="BackgroundImageFix"/>
<feColorMatrix in="SourceAlpha" type="matrix" values="0 0 0 0 0 0 0 0 0 0 0 0 0 0 0 0 0 0 127 0" result="hardAlpha"/>
<feOffset dy="4"/>
<feGaussianBlur stdDeviation="20.3"/>
<feComposite in2="hardAlpha" operator="out"/>
<feColorMatrix type="matrix" values="0 0 0 0 1 0 0 0 0 0.406375 0 0 0 0 0.0724609 0 0 0 1 0"/>
<feBlend mode="normal" in2="BackgroundImageFix" result="effect1_dropShadow_12_429"/>
<feBlend mode="normal" in="SourceGraphic" in2="effect1_dropShadow_12_429" result="shape"/>
</filter>
</defs>
</svg>
