<svg width="708" height="227" viewBox="0 0 708 227" fill="none" xmlns="http://www.w3.org/2000/svg">
<path d="M94.6785 19.8926L75.0622 27.2099C75.4761 32.9101 75.4143 36.0749 74.6619 41.6569L94.6785 19.8926Z" fill="#F0007F"/>
<path d="M111.223 43.5331L98.0509 61.7453L116.497 57.9801C114.952 52.0321 113.811 48.8601 111.223 43.5331Z" fill="#0192DF"/>
<path d="M116.497 57.9801L98.0509 61.7453L118.498 76.1796C118.332 69.0786 118.025 65.0953 116.497 57.9801Z" fill="#787EF7"/>
<path d="M118.498 76.1796L98.0509 61.7453L94.5232 76.3653L118.498 76.1796Z" fill="#A80181"/>
<path d="M98.0509 61.7453L67.2557 57.9801L80.5473 68.3048L94.5232 76.3653L98.0509 61.7453Z" fill="#FF3880"/>
<path d="M45.838 68.6747L28.2234 84.8103L36.9615 96.443L45.838 68.6747Z" fill="#FF5976"/>
<path d="M28.2234 84.8103C20.9561 91.3344 18.1123 95.1001 13.8114 101.884L36.9615 96.443L28.2234 84.8103Z" fill="#FFAD4E"/>
<path d="M94.6785 19.8926L97.3691 41.4328L98.0509 61.7453L111.223 43.5331C106 33.5968 102.163 28.5425 94.6785 19.8926Z" fill="#8763C3"/>
<path d="M118.498 76.1796L94.5232 76.3653L108.84 100.224L116.697 94.942C117.716 87.6685 118.163 83.5697 118.498 76.1796Z" fill="#9F01AE"/>
<path d="M28.3935 108.607L36.9615 96.443L13.8114 101.884L28.3935 108.607Z" fill="#FF1A51"/>
<path d="M111.693 117.269L108.84 100.224L99.2955 117.635L111.567 123.439L111.693 117.269Z" fill="#9A0195"/>
<path d="M116.697 94.942L108.84 100.224L111.693 117.269C113.857 108.659 114.996 103.793 116.697 94.942Z" fill="#D1008D"/>
<path d="M119.299 106.199C116.954 110.698 115.243 113.108 111.693 117.269L111.567 123.439L130.656 111.187L119.299 106.199Z" fill="#8E01A1"/>
<path d="M128.106 84.7482L125.104 94.3791L122.502 100.383L119.299 106.199L130.656 111.187L140.447 91.5647L136.113 84.6227L129.974 84.7482L133.11 80.6826L129.708 76.9301L128.106 84.7482Z" fill="#761FB0"/>
<path d="M133.11 80.6826L129.974 84.7482L136.113 84.6227L133.11 80.6826Z" fill="#019FEE"/>
<path d="M140.447 91.5647L130.656 111.187L148.123 107.138C145.847 101.507 144.182 98.1076 140.447 91.5647Z" fill="#019FEE"/>
<path d="M148.123 107.138L130.656 111.187L154.128 125.525C152.81 118.182 150.671 113.44 148.123 107.138Z" fill="#0181DD"/>
<path d="M154.128 125.525L111.567 123.439L125.168 153.746L155.329 135.093C155.064 131.197 154.774 129.123 154.128 125.525Z" fill="#8834BC"/>
<path d="M155.329 135.093L125.168 153.746L152.727 162.111C155.111 151.807 155.723 145.899 155.329 135.093Z" fill="#4DA0FF"/>
<path d="M152.727 162.111L125.168 153.746L149.524 172.055L152.727 162.111Z" fill="#5C47C3"/>
<path d="M146.922 177.872L130.796 177.525C130.796 177.525 134.751 186.843 137.114 192.694C141.929 187.316 144.899 182.592 146.922 177.872Z" fill="#01A0EE"/>
<path d="M149.524 172.055L125.168 153.746L130.796 177.525L146.922 177.872L149.524 172.055Z" fill="#7025AE"/>
<path d="M130.796 177.525L125.168 153.746L113.612 153.101L130.796 177.525Z" fill="#920194"/>
<path d="M28.3935 108.607V131.822L48.846 127.308L28.3935 108.607Z" fill="#FF0962"/>
<path d="M48.846 127.308L28.3935 131.822L37.938 142.139L48.846 127.308Z" fill="#FF007E"/>
<path d="M75.0622 27.2099L94.6785 19.8926C84.7401 8.85413 69.0519 -0.231146 69.6577 0.00448243C70.2636 0.240111 75.0622 25.5212 75.0622 27.2099Z" fill="#FF3880"/>
<path d="M58.8488 68.8623C61.4532 56.1091 61.6599 50.9766 60.8504 43.7208C56.8754 54.3234 53.5058 59.7496 45.838 68.6747L58.8488 68.8623Z" fill="#F0007F"/>
<path d="M15.4402 171.802L37.938 142.139L0.200166 140.347L0 148.415L15.4402 171.802Z" fill="#FF5A7E"/>
<path d="M15.4402 171.802L0 148.415C1.57638 165.176 4.29406 173.337 10.486 184.157L15.0106 172.298L15.4402 171.802Z" fill="#E1006E"/>
<path d="M15.4402 171.802L15.0106 172.298L34.5292 198.583L61.9388 182.187L15.4402 171.802Z" fill="#B535C0"/>
<path d="M37.938 142.139L15.4402 171.802L61.9388 182.187L37.938 142.139Z" fill="#EA019D"/>
<path d="M37.938 142.139L28.3935 131.822L0.200166 140.347L37.938 142.139Z" fill="#DF0058"/>
<path d="M111.567 123.439L99.2955 117.635L113.612 153.101L111.567 123.439Z" fill="#D1008D"/>
<path d="M125.168 153.746L111.567 123.439L113.612 153.101L125.168 153.746Z" fill="#8022A2"/>
<path d="M154.128 125.525L130.656 111.187L111.567 123.439L154.128 125.525Z" fill="#723FC1"/>
<path fill-rule="evenodd" clip-rule="evenodd" d="M12.01 128.527L28.3935 131.822L0.200166 140.347C1.12017 131.217 1.9968 126.17 5.00415 117.457L12.01 128.527Z" fill="#EC0158"/>
<path d="M59.754 90.5518L45.838 68.6747L36.9615 96.443L59.754 90.5518Z" fill="#FF3259"/>
<path fill-rule="evenodd" clip-rule="evenodd" d="M28.3935 108.607V131.822L12.01 128.527L28.3935 108.607Z" fill="#FF5B61"/>
<path d="M13.8114 101.884C9.8536 110.731 9.62826 116.646 12.01 128.527L28.3935 108.607L13.8114 101.884Z" fill="#EC0158"/>
<path fill-rule="evenodd" clip-rule="evenodd" d="M74.6619 41.6569L94.6785 19.8926L97.3691 41.4328L83.3623 49.1296L74.6619 41.6569Z" fill="#C71F98"/>
<path d="M98.0509 61.7453L97.3691 41.4328L83.3623 49.1296L98.0509 61.7453Z" fill="#9F1EBA"/>
<path d="M67.2557 57.9801L98.0509 61.7453L83.3623 49.1296L67.2557 57.9801Z" fill="#D1008D"/>
<path d="M74.6619 41.6569C72.6744 48.6421 70.9756 52.1636 67.2557 57.9801L83.3623 49.1296L74.6619 41.6569Z" fill="#FFAD4E"/>
<path d="M64.6216 174.64C63.5739 177.587 61.9388 182.187 61.9388 182.187L67.1461 179.256C66.1741 178.078 65.3178 176.567 64.6216 174.64Z" fill="#A6007D"/>
<path d="M67.1461 179.256L61.9388 182.187L65.7282 181.93C66.5416 181.37 67.3794 180.853 68.2262 180.392C67.8528 180.053 67.4921 179.675 67.1461 179.256Z" fill="#D1008D"/>
<path d="M61.9388 182.187L64.0241 183.198C64.5758 182.756 65.1457 182.332 65.7282 181.93L61.9388 182.187Z" fill="#B2036E"/>
<path d="M95.823 191.384C100.844 191.384 105.036 194.918 106.029 199.625C111.698 198.367 117.367 197.106 122.833 195.887L130.796 177.525L86.2642 180.54C90.0069 182.591 93.1568 185.965 94.9441 190.905C95.0055 191.075 95.0635 191.242 95.1181 191.407C95.3511 191.392 95.5861 191.384 95.823 191.384Z" fill="#B2036E"/>
<path d="M125.071 203.586C129.228 200.515 132.687 197.405 137.114 192.694C132.626 193.701 127.814 194.776 122.833 195.887L120.898 200.35C122.487 201.162 123.901 202.264 125.071 203.586Z" fill="#68CDFF"/>
<path d="M130.796 177.525L113.612 153.101L90.8011 165.941C90.2183 173.445 88.2737 177.779 85.6735 180.23C85.872 180.329 86.0689 180.433 86.2642 180.54L130.796 177.525Z" fill="#991AB2"/>
<path d="M113.612 153.101L90.3987 157.493C90.7754 158.614 90.9817 159.779 90.9817 160.962C90.9817 162.76 90.9195 164.416 90.8011 165.941L113.612 153.101Z" fill="#D1008D"/>
<path fill-rule="evenodd" clip-rule="evenodd" d="M15.0106 172.298L34.5292 198.583L35.3415 199.542C32.8877 200.368 30.7353 201.846 29.0921 203.768C21.5449 198.58 16.2348 192.487 10.486 184.157L15.0106 172.298ZM85.2486 180.609C85.3921 180.488 85.5338 180.361 85.6735 180.23C85.872 180.329 86.0689 180.433 86.2642 180.54L85.2486 180.609ZM46.6593 212.743L46.5404 212.769L46.6575 212.804C46.6579 212.783 46.6585 212.763 46.6593 212.743Z" fill="#991AB2"/>
<path d="M137.114 192.694C134.751 186.843 130.796 177.525 130.796 177.525L122.833 195.887C127.814 194.776 132.626 193.701 137.114 192.694Z" fill="#68CDFF"/>
<path d="M58.8488 68.8623L45.838 68.6747L59.754 90.5518L62.3219 89.4715C63.0519 87.511 63.8942 85.4722 64.8596 83.3079H76.9738L82.2902 81.0714H65.9778C68.316 77.1355 70.1234 74.3608 72.208 71.6873L58.8488 68.8623Z" fill="#CD0086"/>
<path d="M108.84 100.224L94.5232 76.3653L93.7625 76.2454L87.2127 79.0007C87.579 79.6556 87.9542 80.3437 88.3432 81.0714H82.2902L76.9738 83.3079H89.4615C91.6109 88.5127 93.0874 92.9804 94.0448 97.309L108.84 100.224Z" fill="#AA017C"/>
<path d="M93.7625 76.2454L84.3088 74.2463C85.2772 75.6691 86.2117 77.2107 87.2127 79.0007L93.7625 76.2454Z" fill="#CD0086"/>
<path d="M108.84 100.224L94.0448 97.309C94.5161 99.4401 94.8617 101.537 95.0997 103.672L108.84 100.224Z" fill="#D80083"/>
<path d="M99.2955 117.635L108.84 100.224L95.0997 103.672C95.5343 107.57 95.6108 111.594 95.4407 116.177L99.2955 117.635Z" fill="#D80083"/>
<path d="M95.4407 116.177C95.3613 118.316 95.2282 120.577 95.0528 123.005L95.2054 123.116L99.2955 117.635L95.4407 116.177Z" fill="#B2036E"/>
<path d="M113.612 153.101L99.2955 117.635L95.2054 123.116C102.295 128.278 104.477 132.199 105.676 136.983L102.01 147.98L113.612 153.101Z" fill="#E2349D"/>
<path d="M90.3987 157.493L113.612 153.101L102.01 147.98L100.085 153.756C97.6438 148.935 95.7126 146.053 92.6599 143.853L88.0019 141.797L84.4293 145.369C82.9023 144.664 81.5556 144.146 80.292 143.807L77.899 147.655C83.3473 148.152 88.6692 152.347 90.3987 157.493Z" fill="#AE0088"/>
<path d="M70.7489 148.985C72.6621 148.103 74.7522 147.606 76.8276 147.606C77.1846 147.606 77.5421 147.623 77.899 147.655L80.292 143.807C77.2615 142.994 74.7085 143.209 71.2898 144.324L70.7489 148.985Z" fill="#B2036E"/>
<path d="M64.7581 153.897C66.2239 151.803 68.347 150.091 70.7489 148.985L71.2898 144.324C70.8398 144.471 70.3748 144.633 69.8918 144.81L65.9778 141.456C63.185 142.177 61.2011 143.293 59.4567 145.039L64.7581 153.897Z" fill="#D1008D"/>
<path d="M62.6736 160.22C62.6736 157.916 63.4567 155.756 64.7581 153.897L59.4567 145.039C57.8157 146.68 56.3868 148.878 54.6961 151.829L61.9388 182.187C61.9388 182.187 63.5739 177.587 64.6216 174.64C63.4022 171.265 62.6736 166.611 62.6736 160.22Z" fill="#A6007D"/>
<path d="M48.846 127.308L37.938 142.139L61.9388 182.187L54.6961 151.829C54.5449 152.092 54.3917 152.362 54.236 152.638L48.0855 136.983C48.7396 135.187 49.3753 133.653 50.0393 132.31L48.846 127.308Z" fill="#FF5A7E"/>
<path d="M58.5397 120.49L48.846 127.308L50.8889 130.722C52.8063 127.423 55.087 125.345 58.7091 123.005C58.6465 122.146 58.59 121.309 58.5397 120.49Z" fill="#FF1D79"/>
<path d="M50.8889 130.722L48.846 127.308L50.0393 132.31C50.3165 131.749 50.5985 131.221 50.8889 130.722Z" fill="#FF1D79"/>
<path d="M28.3935 108.607L48.846 127.308L58.5397 120.49C58.2684 116.066 58.183 112.2 58.3482 108.607H28.3935Z" fill="#FF1D79"/>
<path d="M36.9615 96.443L28.3935 108.607H58.3482C58.6118 102.878 59.5128 97.8427 61.3137 92.3478L59.754 90.5518L36.9615 96.443Z" fill="#FF5A7E"/>
<path fill-rule="evenodd" clip-rule="evenodd" d="M94.5232 76.3653L80.5473 68.3048L67.2557 57.9801C64.3399 62.493 62.4948 64.8713 58.8488 68.8623L72.208 71.6873C73.6405 69.8502 75.2039 68.0608 77.1605 65.9754C80.2422 68.9645 82.3454 71.3613 84.3088 74.2463L93.7625 76.2454L94.5232 76.3653ZM88.0019 141.797L92.6599 143.853C91.4362 142.971 90.0324 142.199 88.3432 141.456L88.0019 141.797Z" fill="#FF5A7E"/>
<path d="M59.754 90.5518L61.7868 90.9524C61.958 90.4633 62.1364 89.9699 62.3219 89.4715L59.754 90.5518Z" fill="#AA017C"/>
<path d="M61.7868 90.9524L59.754 90.5518L61.3137 92.3478C61.465 91.8861 61.6226 91.4212 61.7868 90.9524Z" fill="#D80083"/>
<path d="M122.833 195.887C117.367 197.106 111.698 198.367 106.029 199.625C106.151 200.204 106.225 200.8 106.246 201.41C108.56 199.769 111.39 198.804 114.447 198.804C116.77 198.804 118.963 199.362 120.898 200.35L122.833 195.887Z" fill="#B2036E"/>
<path d="M34.5292 198.583L35.3415 199.542C36.0873 199.291 36.8609 199.101 37.6565 198.976L34.5292 198.583Z" fill="#4665D3"/>
<path d="M61.9388 182.187L34.5292 198.583L37.6565 198.976C38.379 198.863 39.1197 198.804 39.8742 198.804C41.8737 198.804 43.7764 199.217 45.501 199.962L46.7119 200.114C47.2105 196.037 50.9977 192.868 55.5957 192.868C56.13 192.868 56.6534 192.911 57.162 192.993C57.6529 189.696 60.4561 186.06 64.0241 183.198L61.9388 182.187Z" fill="#018EF6"/>
<path d="M83.9824 99.1811C83.9824 102.773 81.0704 105.685 77.4783 105.685C73.8862 105.685 70.9742 102.773 70.9742 99.1811C70.9742 95.589 73.8862 92.677 77.4783 92.677C81.0704 92.677 83.9824 95.589 83.9824 99.1811Z" fill="#DA005B"/>
<path d="M80.9458 114.966C80.9458 116.91 79.3701 118.486 77.4264 118.486C75.4827 118.486 73.907 116.91 73.907 114.966C73.907 113.023 75.4827 111.447 77.4264 111.447C79.3701 111.447 80.9458 113.023 80.9458 114.966Z" fill="#E60E5C"/>
<path d="M74.6911 105.685C74.6909 105.699 74.6908 105.713 74.6908 105.727C74.6908 107.266 75.9388 108.514 77.4783 108.514C79.0177 108.514 80.2657 107.266 80.2657 105.727C80.2657 105.713 80.2656 105.699 80.2654 105.685C78.2181 106.573 76.9926 106.601 74.6911 105.685Z" fill="#B2036E"/>
<path d="M223.271 54.0547V115.5H211.885V54.0547H223.271ZM253.805 115.5V54.0547H265.192L297.633 98.8281V54.0547H308.59V115.5H297.204L264.762 69.7812V115.5H253.805ZM338.05 112.922V102.609C344.208 104.901 351.169 106.047 358.932 106.047C368.357 106.047 373.069 102.896 373.069 96.5938C373.069 92.0104 370.176 89.7188 364.389 89.7188H354.764C342.189 89.7188 335.901 83.9896 335.901 72.5312C335.901 59.9271 344.853 53.625 362.757 53.625C369.632 53.625 376.149 54.6276 382.307 56.6328V66.9453C376.149 64.6536 369.632 63.5078 362.757 63.5078C352.444 63.5078 347.288 66.5156 347.288 72.5312C347.288 77.1146 349.78 79.4062 354.764 79.4062H364.389C377.767 79.4062 384.456 85.1354 384.456 96.5938C384.456 109.484 375.948 115.93 358.932 115.93C351.169 115.93 344.208 114.927 338.05 112.922ZM411.724 115.5V54.0547H439.224C451.771 54.0547 458.044 59.8268 458.044 71.3711C458.044 83.8893 449.465 91.4661 432.306 94.1016L430.673 83.9609C440.986 82.099 446.142 78.0169 446.142 71.7148C446.142 66.6159 443.592 64.0664 438.493 64.0664H423.111V115.5H411.724ZM494.593 54.0547V115.5H483.207V54.0547H494.593ZM525.127 115.414V54.0547H553.057C565.604 54.0547 571.877 59.5404 571.877 70.5117C571.877 77.931 566.993 84.0755 557.225 88.9453L576.689 115.5H562.338L543.646 88.7305V83.5312C554.532 81.6693 559.975 77.444 559.975 70.8555C559.975 66.3294 557.425 64.0664 552.326 64.0664H536.729V115.414H525.127ZM606.02 115.5H594.332L620.414 54.0547H632.661L659.301 115.5H647.055L640.051 98.7422H619.641L623.551 88.8594H635.926L626.258 65.7852L606.02 115.5Z" fill="black"/>
<path d="M209.59 179.5V144.588H215.327L228.145 173.714L240.718 144.588H246.211V179.5H242.183V150.862L229.78 179.5H226.216L213.618 150.862V179.5H209.59ZM263.909 179.5H259.222L274.041 144.588H279.046L293.938 179.5H288.934L284.417 168.514H272.869L274.114 164.852H282.903L276.385 149.031L263.909 179.5ZM306.949 179.5V144.588H321.842C328.482 144.588 331.803 147.379 331.803 152.962C331.803 157.503 328.556 160.864 322.062 163.045L334.049 179.5H328.092L316.983 163.802V160.848C323.657 159.79 326.993 157.226 326.993 153.157C326.993 149.935 325.138 148.323 321.427 148.323H311.466V179.5H306.949ZM352.333 144.588V179.5H347.816V144.588H352.333ZM370.788 179.5H366.101L380.92 144.588H385.925L400.817 179.5H395.812L391.296 168.514H379.748L380.993 164.852H389.782L383.264 149.031L370.788 179.5ZM413.828 179.5V144.588H418.345L439.707 172.713V144.588H443.979V179.5H439.463L418.101 151.131V179.5H413.828Z" fill="black"/>
</svg>
