<svg width="188" height="82" viewBox="0 0 188 82" fill="none" xmlns="http://www.w3.org/2000/svg">
<g filter="url(#filter0_d_5_328)">
<path d="M35.7432 43.8889L46.9217 43.9167V48.6388H31.0277V37.8333L35.7432 42.5554V43.8889ZM46.9217 41.4722L36.7695 41.5L31 35.7222V29.5556H46.9217V34.2777H36.2425L38.7111 36.7499H46.9217V41.4722ZM66.9991 33.6389L67.0822 33.7222C68.1639 35.3056 68.7465 37.1667 68.7465 39.1111C68.7465 41.0277 68.1639 42.8888 67.0822 44.4722C67.0545 44.4998 67.0267 44.5276 66.9991 44.5555C65.2237 47.111 62.3113 48.6388 59.2047 48.6388H49.7182V37.1111L54.4615 41.861V43.8889H59.2047C59.3156 43.8889 59.4265 43.8889 59.5376 43.8889C60.9798 43.8054 62.2835 43.0555 63.1157 41.861C63.1157 41.8332 63.1157 41.8332 63.1157 41.8332C63.6426 41.0277 63.9202 40.0833 63.9202 39.1111C63.9202 38.1389 63.6426 37.1943 63.0879 36.3888C62.2004 35.1111 60.758 34.3333 59.2047 34.3333H54.4615V39.7221L49.7182 34.9722V29.5556H59.2047C62.3113 29.5556 65.2237 31.0833 66.9991 33.6389ZM76.1582 43.8889L87.3365 43.9167V48.6388H71.4427V37.8333L76.1582 42.5554V43.8889ZM87.3365 41.4722L77.1844 41.5L71.4149 35.7222V29.5556H87.3365V34.2777H76.6574L79.1262 36.7499H87.3365V41.4722ZM90.1333 48.6109V37.6388L94.8488 42.3611V48.6109H90.1333ZM103.087 33.6111L107.691 29V48.6388H103.253L103.059 48.4442L97.8721 43.2499L94.8488 40.2222L90.1333 35.4999V29.5556H90.8823L90.9932 29.6667L102.976 41.6667V33.7222L103.087 33.6111ZM127.136 44.5555V44.5833L130.991 48.4442C130.659 48.5277 130.326 48.5833 129.965 48.6109C129.854 48.6109 129.743 48.6109 129.632 48.6109C129.521 48.6109 129.41 48.6109 129.299 48.6109H123.669V44.5555H124.695H127.136ZM132.406 39.3332L132.351 39.3611C133.737 40.2776 134.653 41.8332 134.653 43.6111C134.653 43.9443 134.625 44.2777 134.57 44.6111C134.348 45.6665 133.821 46.5833 133.072 47.2777L130.215 44.4166C130.409 44.2777 130.548 44.0556 130.603 43.8054C130.603 43.75 130.603 43.6943 130.603 43.6111C130.603 43.111 130.27 42.8332 130.132 42.75C129.965 42.6389 129.771 42.5832 129.577 42.5832L127.413 40.3611V38.25L129.577 36.1389C129.771 36.1389 129.965 36.0832 130.132 35.9722C130.27 35.8889 130.603 35.6112 130.603 35.1111C130.603 35.0277 130.603 34.9444 130.603 34.8889C130.52 34.4722 130.187 34.1666 129.771 34.1111H123.585V30.0555H129.216C129.355 30.0555 129.494 30.0555 129.632 30.0555C129.771 30.0555 129.91 30.0555 130.048 30.0555C132.323 30.2222 134.181 31.8889 134.625 34.0833C134.681 34.4166 134.708 34.75 134.708 35.0832C134.708 36.8611 133.793 38.4167 132.406 39.3332ZM138.093 47.111C138.093 46.4259 138.259 45.9443 138.592 45.6665C138.925 45.3888 139.323 45.2499 139.785 45.2499C140.266 45.2499 140.673 45.3888 141.006 45.6665C141.357 45.9443 141.533 46.4259 141.533 47.111C141.533 47.7776 141.357 48.2592 141.006 48.5555C140.673 48.8518 140.266 49 139.785 49C139.323 49 138.925 48.8518 138.592 48.5555C138.259 48.2592 138.093 47.7776 138.093 47.111ZM157.526 36.5555L157.553 41.9721C157.553 42.0555 157.553 42.1388 157.553 42.2222C157.553 42.3055 157.553 42.3887 157.553 42.4722C157.526 42.9167 157.47 43.3333 157.359 43.75L153.726 40.1111V36.1667C153.642 34.8055 152.56 33.7222 151.229 33.7222C150.203 33.7222 149.315 34.3889 148.927 35.3056L146.125 32.5C146.597 31.8611 147.179 31.3055 147.845 30.8889C148.816 30.25 149.981 29.8889 151.229 29.8889C152.477 29.8889 153.642 30.25 154.613 30.8889C156.305 32 157.442 33.8889 157.526 36.0554C157.526 36.1389 157.526 36.2221 157.526 36.3056C157.526 36.3888 157.526 36.4721 157.526 36.5555ZM151.257 44.8054L151.285 44.7222C152.339 44.7222 153.226 44.0556 153.587 43.111L156.388 45.9165C155.723 46.8611 154.807 47.6109 153.753 48.0832C153.004 48.4166 152.172 48.6109 151.285 48.6109C150.397 48.6109 149.565 48.4166 148.816 48.0832C146.68 47.1667 145.155 45.0832 144.988 42.6111C144.988 42.4722 144.988 42.3333 144.988 42.1944C144.988 42.0555 144.988 41.9166 144.988 41.7778V36.7223C144.988 36.5834 144.988 36.4445 144.988 36.3056C144.988 36.1667 144.988 36.0278 144.988 35.8889C145.016 35.4999 145.071 35.1111 145.155 34.7222L148.788 38.3611V42.4722C148.927 43.7778 149.981 44.8054 151.257 44.8054Z" fill="#FF9F2F"/>
</g>
<defs>
<filter id="filter0_d_5_328" x="0.63505" y="0.360331" width="187.283" height="80.7299" filterUnits="userSpaceOnUse" color-interpolation-filters="sRGB">
<feFlood flood-opacity="0" result="BackgroundImageFix"/>
<feColorMatrix in="SourceAlpha" type="matrix" values="0 0 0 0 0 0 0 0 0 0 0 0 0 0 0 0 0 0 127 0" result="hardAlpha"/>
<feOffset dy="1.72528"/>
<feGaussianBlur stdDeviation="15.1825"/>
<feComposite in2="hardAlpha" operator="out"/>
<feColorMatrix type="matrix" values="0 0 0 0 1 0 0 0 0 0.623529 0 0 0 0 0.184314 0 0 0 1 0"/>
<feBlend mode="normal" in2="BackgroundImageFix" result="effect1_dropShadow_5_328"/>
<feBlend mode="normal" in="SourceGraphic" in2="effect1_dropShadow_5_328" result="shape"/>
</filter>
</defs>
</svg>
