<svg width="430" height="212" viewBox="0 0 430 212" fill="none" xmlns="http://www.w3.org/2000/svg">
<g filter="url(#filter0_d_12_450)">
<path d="M202.707 145.358H213.659L219.69 139.477H262.226L265.401 135.662H213.659L202.707 145.358Z" fill="#97A5B2"/>
<path d="M40.4978 53.805L42.4024 131.211L78.4313 164.43H181.28L202.707 145.357L213.659 135.661H265.401H386.502V56.1892L371.424 39.5H258.417L244.291 53.805H40.4978Z" fill="black" fill-opacity="0.59"/>
<path d="M202.707 145.357L181.28 164.43H78.4313L42.4024 131.211L40.4978 53.805H244.291L258.417 39.5H371.424L386.502 56.1892V135.661H265.401M202.707 145.357H213.659L219.69 139.477H262.226L265.401 135.661M202.707 145.357L213.659 135.661H265.401" stroke="#97A5B2" stroke-width="5.08624"/>
</g>
<path d="M65.5752 142.656L78.2726 154.259H95.5729L102.08 159.504H146.363M146.363 159.504L157.155 150.921H187.629L213.024 129.781H273.178M146.363 159.504L139.22 164.59" stroke="#97A5B2" stroke-width="1.90734"/>
<path d="M113.864 147.337L121.22 139.635H185.248L180.568 144.491H153.151L150.978 147.337H113.864Z" fill="#97A5B2" stroke="#97A5B2" stroke-width="1.77718"/>
<path d="M78.5903 146.834L85.7789 139.635H89.9581L82.7697 146.834H78.5903Z" fill="#97A5B2" stroke="#97A5B2" stroke-width="1.77718"/>
<path d="M87.1162 146.834L94.3049 139.635H98.4844L91.2957 146.834H87.1162Z" fill="#97A5B2" stroke="#97A5B2" stroke-width="1.77718"/>
<path d="M95.6418 146.834L102.831 139.635H107.01L99.8214 146.834H95.6418Z" fill="#97A5B2" stroke="#97A5B2" stroke-width="1.77718"/>
<path d="M104.168 146.834L111.357 139.635H115.536L108.348 146.834H104.168Z" fill="#97A5B2" stroke="#97A5B2" stroke-width="1.77718"/>
<path d="M319.206 59.686L323.809 47.2883H326.825L322.222 59.686H319.206Z" fill="#97A5B2" stroke="#97A5B2" stroke-width="1.90734"/>
<path d="M324.285 59.5271L328.888 47.1294H331.903L327.301 59.5271H324.285Z" fill="#97A5B2" stroke="#97A5B2" stroke-width="1.90734"/>
<path d="M329.364 59.5271L333.966 47.1294H336.982L332.379 59.5271H329.364Z" fill="#97A5B2" stroke="#97A5B2" stroke-width="1.90734"/>
<path d="M334.126 59.5271L338.728 47.1294H341.744L337.141 59.5271H334.126Z" fill="#97A5B2" stroke="#97A5B2" stroke-width="1.90734"/>
<path d="M339.205 59.5271L343.807 47.1294H346.823L342.22 59.5271H339.205Z" fill="#97A5B2" stroke="#97A5B2" stroke-width="1.90734"/>
<path d="M344.283 59.5271L348.886 47.1294H351.902L347.299 59.5271H344.283Z" fill="#97A5B2" stroke="#97A5B2" stroke-width="1.90734"/>
<path d="M349.362 59.5271L353.965 47.1294H356.981L352.378 59.5271H349.362Z" fill="#97A5B2" stroke="#97A5B2" stroke-width="1.90734"/>
<path d="M354.441 59.5271L359.044 47.1294H362.06L357.457 59.5271H354.441Z" fill="#97A5B2" stroke="#97A5B2" stroke-width="1.90734"/>
<path d="M359.52 59.5271L364.123 47.1294H367.139L362.536 59.5271H359.52Z" fill="#97A5B2" stroke="#97A5B2" stroke-width="1.90734"/>
<path d="M294.875 86.875V79L299.625 75.25H308.438V119H299.625V86.875H294.875ZM324.188 119C318.229 119 314.479 114.854 312.938 106.562C312.438 103.812 312.188 100.667 312.188 97.125C312.188 83.7917 315.583 76.5417 322.375 75.375C322.958 75.2917 323.562 75.25 324.188 75.25V83.625C322.062 84.125 320.896 87.1458 320.688 92.6875C320.646 93.6458 320.625 94.8958 320.625 96.4375V97.8125C320.625 103.562 321.125 107.271 322.125 108.938C322.667 109.854 323.354 110.417 324.188 110.625V119ZM327.625 119V110.625C329.75 110.125 330.917 107.104 331.125 101.562C331.167 100.604 331.188 99.3542 331.188 97.8125V96.4375C331.188 90.6875 330.688 86.9792 329.688 85.3125C329.146 84.3958 328.458 83.8333 327.625 83.625V75.25C333.583 75.25 337.333 79.3958 338.875 87.6875C339.375 90.4375 339.625 93.5833 339.625 97.125C339.625 110.458 336.229 117.708 329.438 118.875C328.854 118.958 328.25 119 327.625 119ZM344.125 119V74.25H352.75V119H344.125ZM354.562 101.062L362.25 83.375H371.375L363.5 101.062L371.5 119H362.438L354.562 101.062Z" fill="#97A5B2"/>
<path d="M79.7812 106.828L84.7422 105.07C84.7422 105.721 84.9245 106.294 85.2891 106.789C85.6536 107.284 86.0182 107.609 86.3828 107.766L86.9297 108.039V113.117C84.7161 113.117 82.8281 112.154 81.2656 110.227C80.3021 109.003 79.8073 107.87 79.7812 106.828ZM80.0938 93.1562C80.0938 90.2917 81.3177 88.1432 83.7656 86.7109C84.8854 86.0339 85.9401 85.6823 86.9297 85.6562V90.8125C86.2786 90.9948 85.7969 91.4635 85.4844 92.2188C85.3802 92.4531 85.3281 92.7005 85.3281 92.9609C85.3281 94.0286 86.1224 94.9401 87.7109 95.6953C88.0495 95.8516 88.5964 96.0859 89.3516 96.3984C90.6016 96.8932 91.487 97.2969 92.0078 97.6094C94.1172 98.8594 95.5234 100.135 96.2266 101.438C96.7474 102.453 97.0078 103.586 97.0078 104.836C97.0078 107.206 96.1094 109.237 94.3125 110.93C92.776 112.388 91.0312 113.117 89.0781 113.117V108.039C90.0938 107.909 90.8099 107.375 91.2266 106.438C91.4089 106.021 91.5 105.565 91.5 105.07C91.5 103.742 90.5104 102.648 88.5312 101.789C88.1667 101.633 87.5938 101.411 86.8125 101.125C85.901 100.812 85.263 100.565 84.8984 100.383C82.6589 99.3151 81.2266 97.9349 80.6016 96.2422C80.263 95.3307 80.0938 94.3021 80.0938 93.1562ZM89.0781 90.8125V85.6562C91.2656 85.6562 93.1016 86.5807 94.5859 88.4297C95.4453 89.5234 95.888 90.513 95.9141 91.3984L90.8359 93.0781C90.8359 91.9844 90.3021 91.2422 89.2344 90.8516C89.1302 90.8255 89.0781 90.8125 89.0781 90.8125ZM99.4297 113V85.6562H113.648V91.125H104.938V96.6719H109.977V102.18H104.938V107.492H113.648V113H99.4297ZM116.617 105.93V92.7656C116.617 91.2552 117.177 89.7839 118.297 88.3516C119.781 86.4505 121.786 85.487 124.312 85.4609V90.9688C123.219 90.9948 122.516 91.5026 122.203 92.4922C122.151 92.5964 122.125 92.6875 122.125 92.7656V105.93C122.125 106.346 122.346 106.75 122.789 107.141C123.206 107.505 123.714 107.688 124.312 107.688V113.195C121.396 113.195 119.195 111.971 117.711 109.523C116.982 108.273 116.617 107.076 116.617 105.93ZM126.422 113.195V107.688C126.422 107.688 126.721 107.57 127.32 107.336C127.685 107.076 127.932 106.802 128.062 106.516C128.193 106.177 128.258 105.695 128.258 105.07V104.602L133.648 105.891C133.648 108.156 132.737 110.031 130.914 111.516C129.534 112.635 128.036 113.195 126.422 113.195ZM126.422 90.9688V85.4609C128.323 85.4609 130.042 86.2943 131.578 87.9609C132.958 89.4714 133.648 91.099 133.648 92.8438L128.258 94.25V93.6641C128.258 93.013 128.193 92.5312 128.062 92.2188C127.958 91.9583 127.763 91.724 127.477 91.5156C127.216 91.3073 126.982 91.1641 126.773 91.0859L126.422 90.9688ZM135.914 105.383V92.5312C135.914 91.151 136.5 89.7448 137.672 88.3125C139.234 86.4375 141.214 85.487 143.609 85.4609V90.9688C142.542 90.9948 141.839 91.5938 141.5 92.7656C141.448 92.9479 141.422 93.0781 141.422 93.1562V105.383C141.422 106.451 142.008 107.18 143.18 107.57C143.362 107.622 143.492 107.648 143.57 107.648V113.195C142.086 113.195 140.602 112.661 139.117 111.594C137.008 110.031 135.94 107.961 135.914 105.383ZM145.719 113.195V107.648C146.135 107.648 146.604 107.427 147.125 106.984C147.62 106.542 147.88 106.008 147.906 105.383V93.1562C147.906 92.6875 147.685 92.1927 147.242 91.6719C146.826 91.2292 146.318 90.9948 145.719 90.9688V85.4609C148.349 85.4609 150.458 86.5938 152.047 88.8594C152.958 90.1615 153.414 91.3854 153.414 92.5312V105.383C153.414 108.273 152.125 110.487 149.547 112.023C148.193 112.805 146.917 113.195 145.719 113.195ZM156.539 113V93.7812H156.852L162.047 102.141V113H156.539ZM156.539 89.25V85.6562H161.031L173.922 106.438V113H171.305L156.539 89.25ZM168.414 93.5469V85.6562H173.922V101.906H173.609L168.414 93.5469ZM177.203 113V85.6562H182.711V113H177.203ZM184.82 113V107.492C185.393 107.492 185.927 107.258 186.422 106.789C186.786 106.372 186.982 105.878 187.008 105.305V93.3516C187.008 92.8307 186.786 92.3229 186.344 91.8281C185.927 91.4115 185.419 91.1901 184.82 91.1641V85.6562C187.711 85.6562 189.898 86.9453 191.383 89.5234C192.138 90.8516 192.516 92.1276 192.516 93.3516V105.305C192.516 108.273 191.201 110.487 188.57 111.945C187.268 112.648 186.018 113 184.82 113Z" fill="#97A5B2"/>
<defs>
<filter id="filter0_d_12_450" x="-2.70864" y="0.356789" width="432.354" height="211.217" filterUnits="userSpaceOnUse" color-interpolation-filters="sRGB">
<feFlood flood-opacity="0" result="BackgroundImageFix"/>
<feColorMatrix in="SourceAlpha" type="matrix" values="0 0 0 0 0 0 0 0 0 0 0 0 0 0 0 0 0 0 127 0" result="hardAlpha"/>
<feOffset dy="4"/>
<feGaussianBlur stdDeviation="20.3"/>
<feComposite in2="hardAlpha" operator="out"/>
<feColorMatrix type="matrix" values="0 0 0 0 0.352295 0 0 0 0 0.688144 0 0 0 0 1 0 0 0 1 0"/>
<feBlend mode="normal" in2="BackgroundImageFix" result="effect1_dropShadow_12_450"/>
<feBlend mode="normal" in="SourceGraphic" in2="effect1_dropShadow_12_450" result="shape"/>
</filter>
</defs>
</svg>
