<svg width="429" height="212" viewBox="0 0 429 212" fill="none" xmlns="http://www.w3.org/2000/svg">
<g filter="url(#filter0_d_12_470)">
<path d="M201.707 145.358H212.659L218.69 139.477H261.226L264.401 135.662H212.659L201.707 145.358Z" fill="#CE5C1D"/>
<path d="M39.4978 53.805L41.4024 131.211L77.4313 164.43H180.28L201.707 145.357L212.659 135.661H264.401H385.502V56.1892L370.424 39.5H257.417L243.291 53.805H39.4978Z" fill="black" fill-opacity="0.59"/>
<path d="M201.707 145.357L180.28 164.43H77.4313L41.4024 131.211L39.4978 53.805H243.291L257.417 39.5H370.424L385.502 56.1892V135.661H264.401M201.707 145.357H212.659L218.69 139.477H261.226L264.401 135.661M201.707 145.357L212.659 135.661H264.401" stroke="#CE5C1D" stroke-width="5.08624"/>
</g>
<path d="M64.5752 142.656L77.2726 154.259H94.5729L101.08 159.504H145.363M145.363 159.504L156.155 150.921H186.629L212.024 129.781H272.178M145.363 159.504L138.22 164.59" stroke="#CE5C1D" stroke-width="1.90734"/>
<path d="M112.864 147.337L120.22 139.635H184.248L179.568 144.491H152.151L149.978 147.337H112.864Z" fill="#CE5C1D" stroke="#CE5C1D" stroke-width="1.77718"/>
<path d="M77.5903 146.834L84.7789 139.635H88.9581L81.7697 146.834H77.5903Z" fill="#CE5C1D" stroke="#CE5C1D" stroke-width="1.77718"/>
<path d="M86.1162 146.834L93.3049 139.635H97.4844L90.2957 146.834H86.1162Z" fill="#CE5C1D" stroke="#CE5C1D" stroke-width="1.77718"/>
<path d="M94.6418 146.834L101.831 139.635H106.01L98.8214 146.834H94.6418Z" fill="#CE5C1D" stroke="#CE5C1D" stroke-width="1.77718"/>
<path d="M103.168 146.834L110.357 139.635H114.536L107.348 146.834H103.168Z" fill="#CE5C1D" stroke="#CE5C1D" stroke-width="1.77718"/>
<path d="M318.206 59.686L322.809 47.2883H325.825L321.222 59.686H318.206Z" fill="#CE5C1D" stroke="#CE5C1D" stroke-width="1.90734"/>
<path d="M323.285 59.5271L327.888 47.1294H330.903L326.301 59.5271H323.285Z" fill="#CE5C1D" stroke="#CE5C1D" stroke-width="1.90734"/>
<path d="M328.364 59.5271L332.966 47.1294H335.982L331.379 59.5271H328.364Z" fill="#CE5C1D" stroke="#CE5C1D" stroke-width="1.90734"/>
<path d="M333.126 59.5271L337.728 47.1294H340.744L336.141 59.5271H333.126Z" fill="#CE5C1D" stroke="#CE5C1D" stroke-width="1.90734"/>
<path d="M338.205 59.5271L342.807 47.1294H345.823L341.22 59.5271H338.205Z" fill="#CE5C1D" stroke="#CE5C1D" stroke-width="1.90734"/>
<path d="M343.283 59.5271L347.886 47.1294H350.902L346.299 59.5271H343.283Z" fill="#CE5C1D" stroke="#CE5C1D" stroke-width="1.90734"/>
<path d="M348.362 59.5271L352.965 47.1294H355.981L351.378 59.5271H348.362Z" fill="#CE5C1D" stroke="#CE5C1D" stroke-width="1.90734"/>
<path d="M353.441 59.5271L358.044 47.1294H361.06L356.457 59.5271H353.441Z" fill="#CE5C1D" stroke="#CE5C1D" stroke-width="1.90734"/>
<path d="M358.52 59.5271L363.123 47.1294H366.139L361.536 59.5271H358.52Z" fill="#CE5C1D" stroke="#CE5C1D" stroke-width="1.90734"/>
<path d="M311.812 94.875L313.625 73.25H336.062V81.375H321.188L320.438 89.375C321.354 89.1667 322.292 89.0625 323.25 89.0625V96.75C321.375 96.9167 320.021 97.6042 319.188 98.8125C319.104 98.9375 319.042 99.0417 319 99.125L311.812 94.875ZM326.625 117V109.125C329 108.708 330.562 107.375 331.312 105.125C331.521 104.458 331.625 103.75 331.625 103C331.625 100.625 330.667 98.8125 328.75 97.5625C328.042 97.1042 327.333 96.8333 326.625 96.75V89.0625C331.792 89.1875 335.521 91.3542 337.812 95.5625C339.021 97.8125 339.625 100.312 339.625 103.062C339.625 108.021 337.812 111.833 334.188 114.5C331.896 116.083 329.375 116.917 326.625 117ZM310.875 106L318.438 104.562C318.521 106.271 319.562 107.583 321.562 108.5C322.188 108.792 322.688 108.938 323.062 108.938V117.062C319.771 117.062 316.833 115.792 314.25 113.25C312.042 111 310.917 108.583 310.875 106ZM344.125 117V72.25H352.75V117H344.125ZM354.562 99.0625L362.25 81.375H371.375L363.5 99.0625L371.5 117H362.438L354.562 99.0625Z" fill="#CE5C1D"/>
<path d="M92.5859 91.0469V85.6562H109.5V91.0469H103.797V113H98.2891V91.0469H92.5859ZM111.648 113V85.6562H117.156V96.5547H118.68V101.945H117.156V113H111.648ZM120.828 101.945V96.5547H122.352V85.6562H127.859V113H122.352V101.945H120.828ZM131.062 113V85.6562H136.57V113H131.062ZM139.852 113V85.6562H145.359V113H139.852ZM147.469 101.828V96.9453H147.977C149.643 96.9453 150.711 96.2682 151.18 94.9141C151.284 94.5755 151.336 94.224 151.336 93.8594C151.336 92.4792 150.685 91.5547 149.383 91.0859C148.966 90.9297 148.497 90.8516 147.977 90.8516H147.469V85.6562H148.328C151.74 85.7083 154.135 86.9193 155.516 89.2891C156.167 90.4089 156.492 91.6719 156.492 93.0781C156.466 95.7604 155.581 97.8177 153.836 99.25C155.138 100.083 155.971 101.594 156.336 103.781C156.362 104.042 156.388 104.289 156.414 104.523L157.078 113H152L151.414 106.047C151.206 103.964 150.607 102.674 149.617 102.18C149.148 101.971 148.576 101.854 147.898 101.828H147.469ZM159.578 113V85.6562H165.086V113H159.578ZM167.195 113V107.492C167.768 107.492 168.302 107.258 168.797 106.789C169.161 106.372 169.357 105.878 169.383 105.305V93.3516C169.383 92.8307 169.161 92.3229 168.719 91.8281C168.302 91.4115 167.794 91.1901 167.195 91.1641V85.6562C170.086 85.6562 172.273 86.9453 173.758 89.5234C174.513 90.8516 174.891 92.1276 174.891 93.3516V105.305C174.891 108.273 173.576 110.487 170.945 111.945C169.643 112.648 168.393 113 167.195 113Z" fill="#CE5C1D"/>
<defs>
<filter id="filter0_d_12_470" x="-3.70864" y="0.356789" width="432.354" height="211.217" filterUnits="userSpaceOnUse" color-interpolation-filters="sRGB">
<feFlood flood-opacity="0" result="BackgroundImageFix"/>
<feColorMatrix in="SourceAlpha" type="matrix" values="0 0 0 0 0 0 0 0 0 0 0 0 0 0 0 0 0 0 127 0" result="hardAlpha"/>
<feOffset dy="4"/>
<feGaussianBlur stdDeviation="20.3"/>
<feComposite in2="hardAlpha" operator="out"/>
<feColorMatrix type="matrix" values="0 0 0 0 0.587337 0 0 0 0 0.280417 0 0 0 0 0.107774 0 0 0 1 0"/>
<feBlend mode="normal" in2="BackgroundImageFix" result="effect1_dropShadow_12_470"/>
<feBlend mode="normal" in="SourceGraphic" in2="effect1_dropShadow_12_470" result="shape"/>
</filter>
</defs>
</svg>
