<svg width="1193" height="308" viewBox="0 0 1193 308" fill="none" xmlns="http://www.w3.org/2000/svg">
<g filter="url(#filter0_d_5_322)">
<path d="M110.391 190.577L203.226 190.808V230.002H71.2304V140.317L110.391 179.51V190.577ZM203.226 170.519L118.914 170.75L71 122.795V71.6112H203.226V110.805H114.538L135.039 131.324H203.226V170.519ZM369.965 105.503L370.656 106.194C379.639 119.336 384.477 134.784 384.477 150.922C384.477 166.83 379.639 182.277 370.656 195.419C370.425 195.649 370.194 195.879 369.965 196.11C355.221 217.322 331.034 230.002 305.234 230.002H226.451V134.322L265.843 173.746V190.577H305.234C306.155 190.577 307.076 190.577 307.999 190.577C319.976 189.885 330.803 183.661 337.714 173.746C337.714 173.515 337.714 173.515 337.714 173.515C342.09 166.83 344.396 158.992 344.396 150.922C344.396 142.853 342.09 135.013 337.483 128.327C330.113 117.722 318.134 111.267 305.234 111.267H265.843V155.993L226.451 116.569V71.6112H305.234C331.034 71.6112 355.221 84.2916 369.965 105.503ZM446.03 190.577L538.863 190.808V230.002H406.868V140.317L446.03 179.51V190.577ZM538.863 170.519L454.552 170.75L406.637 122.795V71.6112H538.863V110.805H450.175L470.678 131.324H538.863V170.519ZM562.09 229.771V138.702L601.251 177.897V229.771H562.09ZM669.667 105.272L707.906 67V230.002H671.049L669.436 228.387L626.359 185.274L601.251 160.144L562.09 120.949V71.6112H568.31L569.231 72.5334L668.746 172.134V106.194L669.667 105.272ZM869.388 196.11V196.341L901.409 228.387C898.644 229.08 895.881 229.542 892.885 229.771C891.964 229.771 891.043 229.771 890.12 229.771C889.199 229.771 888.278 229.771 887.357 229.771H840.594V196.11H849.118H869.388ZM913.157 152.766L912.696 152.997C924.213 160.604 931.816 173.515 931.816 188.272C931.816 191.038 931.585 193.805 931.124 196.572C929.282 205.332 924.906 212.941 918.685 218.705L894.958 194.958C896.571 193.805 897.723 191.961 898.184 189.885C898.184 189.425 898.184 188.963 898.184 188.272C898.184 184.121 895.419 181.816 894.268 181.125C892.885 180.203 891.272 179.741 889.661 179.741L871.692 161.297V143.775L889.661 126.253C891.272 126.253 892.885 125.791 894.268 124.869C895.419 124.178 898.184 121.873 898.184 117.722C898.184 117.03 898.184 116.339 898.184 115.878C897.492 112.419 894.729 109.883 891.272 109.422H839.902V75.7611H886.665C887.817 75.7611 888.968 75.7611 890.12 75.7611C891.272 75.7611 892.424 75.7611 893.576 75.7611C912.465 77.1444 927.899 90.9777 931.585 109.191C932.047 111.958 932.276 114.725 932.276 117.491C932.276 132.247 924.675 145.159 913.157 152.766ZM960.385 217.322C960.385 211.635 961.767 207.638 964.532 205.332C967.295 203.027 970.599 201.874 974.437 201.874C978.43 201.874 981.809 203.027 984.574 205.332C987.491 207.638 988.95 211.635 988.95 217.322C988.95 222.854 987.491 226.851 984.574 229.311C981.809 231.77 978.43 233 974.437 233C970.599 233 967.295 231.77 964.532 229.311C961.767 226.851 960.385 222.854 960.385 217.322ZM1121.77 129.711L1122 174.668C1122 175.361 1122 176.052 1122 176.745C1122 177.435 1122 178.126 1122 178.819C1121.77 182.508 1121.31 185.967 1120.39 189.425L1090.21 159.222V126.484C1089.52 115.186 1080.53 106.194 1069.48 106.194C1060.95 106.194 1053.58 111.728 1050.36 119.336L1027.09 96.0499C1031.01 90.7471 1035.85 86.136 1041.37 82.6777C1049.44 77.3749 1059.11 74.3778 1069.48 74.3778C1079.84 74.3778 1089.52 77.3749 1097.58 82.6777C1111.63 91.8999 1121.08 107.578 1121.77 125.56C1121.77 126.253 1121.77 126.944 1121.77 127.636C1121.77 128.327 1121.77 129.018 1121.77 129.711ZM1069.71 198.185L1069.94 197.494C1078.69 197.494 1086.06 191.961 1089.06 184.121L1112.32 207.407C1106.8 215.247 1099.19 221.471 1090.44 225.391C1084.22 228.158 1077.31 229.771 1069.94 229.771C1062.57 229.771 1055.66 228.158 1049.44 225.391C1031.7 217.783 1019.03 200.49 1017.65 179.972C1017.65 178.819 1017.65 177.666 1017.65 176.514C1017.65 175.361 1017.65 174.208 1017.65 173.055V131.095C1017.65 129.942 1017.65 128.789 1017.65 127.636C1017.65 126.484 1017.65 125.331 1017.65 124.178C1017.88 120.949 1018.34 117.722 1019.03 114.494L1049.21 144.697V178.819C1050.36 189.656 1059.11 198.185 1069.71 198.185Z" fill="white"/>
</g>
<defs>
<filter id="filter0_d_5_322" x="0.599998" y="0.599998" width="1191.8" height="306.8" filterUnits="userSpaceOnUse" color-interpolation-filters="sRGB">
<feFlood flood-opacity="0" result="BackgroundImageFix"/>
<feColorMatrix in="SourceAlpha" type="matrix" values="0 0 0 0 0 0 0 0 0 0 0 0 0 0 0 0 0 0 127 0" result="hardAlpha"/>
<feOffset dy="4"/>
<feGaussianBlur stdDeviation="35.2"/>
<feComposite in2="hardAlpha" operator="out"/>
<feColorMatrix type="matrix" values="0 0 0 0 1 0 0 0 0 0.623529 0 0 0 0 0.184314 0 0 0 1 0"/>
<feBlend mode="normal" in2="BackgroundImageFix" result="effect1_dropShadow_5_322"/>
<feBlend mode="normal" in="SourceGraphic" in2="effect1_dropShadow_5_322" result="shape"/>
</filter>
</defs>
</svg>
